<?xml version="1.0" encoding="UTF-8" ?>
<svg version="1.1" width="32" height="32" xmlns="http://www.w3.org/2000/svg" shape-rendering="crispEdges">
<rect x="23" y="0" width="1" height="4" fill="#010101" />
<rect x="12" y="1" width="2" height="1" fill="#010101" />
<rect x="14" y="1" width="1" height="1" fill="#000000" opacity="0.003922" />
<rect x="24" y="1" width="2" height="1" fill="#010101" />
<rect x="10" y="2" width="2" height="1" fill="#010101" />
<rect x="12" y="2" width="1" height="1" fill="#F6B602" opacity="0.988235" />
<rect x="13" y="2" width="1" height="1" fill="#EFC00B" opacity="0.992157" />
<rect x="14" y="2" width="5" height="1" fill="#010101" />
<rect x="24" y="2" width="1" height="1" fill="#F7AE01" />
<rect x="25" y="2" width="2" height="1" fill="#010101" />
<rect x="11" y="3" width="2" height="1" fill="#010101" />
<rect x="13" y="3" width="1" height="1" fill="#FFC710" />
<rect x="14" y="3" width="1" height="1" fill="#FDBE07" />
<rect x="15" y="3" width="1" height="1" fill="#FFCA0A" />
<rect x="16" y="3" width="2" height="1" fill="#FEC309" opacity="0.984314" />
<rect x="18" y="3" width="1" height="1" fill="#FECF11" opacity="0.988235" />
<rect x="19" y="3" width="4" height="1" fill="#010101" />
<rect x="24" y="3" width="1" height="1" fill="#FDC60D" opacity="0.996078" />
<rect x="25" y="3" width="1" height="1" fill="#F7B707" opacity="0.992157" />
<rect x="26" y="3" width="1" height="1" fill="#CC8101" opacity="0.992157" />
<rect x="27" y="3" width="1" height="2" fill="#010101" />
<rect x="12" y="4" width="1" height="1" fill="#010101" />
<rect x="13" y="4" width="1" height="1" fill="#EAA70C" />
<rect x="14" y="4" width="1" height="1" fill="#F8BB0F" opacity="0.996078" />
<rect x="15" y="4" width="1" height="1" fill="#FFCD14" />
<rect x="16" y="4" width="2" height="1" fill="#FEC114" opacity="0.992157" />
<rect x="18" y="4" width="1" height="1" fill="#FDB409" opacity="0.988235" />
<rect x="19" y="4" width="1" height="1" fill="#FBCC11" />
<rect x="20" y="4" width="1" height="1" fill="#F9D10F" />
<rect x="21" y="4" width="1" height="1" fill="#FCD80F" opacity="0.992157" />
<rect x="22" y="4" width="1" height="1" fill="#FBDA09" opacity="0.988235" />
<rect x="23" y="4" width="1" height="1" fill="#754C0D" opacity="0.996078" />
<rect x="24" y="4" width="1" height="1" fill="#F9C613" opacity="0.988235" />
<rect x="25" y="4" width="1" height="1" fill="#FFC610" opacity="0.992157" />
<rect x="26" y="4" width="1" height="1" fill="#C3850E" opacity="0.992157" />
<rect x="13" y="5" width="1" height="1" fill="#010101" />
<rect x="14" y="5" width="1" height="1" fill="#EC9303" />
<rect x="15" y="5" width="1" height="1" fill="#FFC512" />
<rect x="16" y="5" width="2" height="1" fill="#FBB10D" opacity="0.996078" />
<rect x="18" y="5" width="1" height="1" fill="#FDC615" opacity="0.992157" />
<rect x="19" y="5" width="1" height="3" fill="#0F3F49" />
<rect x="20" y="5" width="1" height="1" fill="#FFCB17" />
<rect x="21" y="5" width="1" height="1" fill="#FDCA15" />
<rect x="22" y="5" width="1" height="1" fill="#FFC613" opacity="0.988235" />
<rect x="23" y="5" width="1" height="1" fill="#E4910A" opacity="0.996078" />
<rect x="24" y="5" width="1" height="1" fill="#E68C00" opacity="0.988235" />
<rect x="25" y="5" width="1" height="1" fill="#FBC10D" />
<rect x="26" y="5" width="1" height="1" fill="#E2A109" opacity="0.992157" />
<rect x="27" y="5" width="1" height="1" fill="#DF9400" opacity="0.988235" />
<rect x="28" y="5" width="1" height="5" fill="#010101" />
<rect x="12" y="6" width="1" height="2" fill="#555555" opacity="0.011765" />
<rect x="13" y="6" width="1" height="2" fill="#404040" opacity="0.015686" />
<rect x="14" y="6" width="1" height="3" fill="#010101" />
<rect x="15" y="6" width="1" height="2" fill="#FFBF02" />
<rect x="16" y="6" width="2" height="2" fill="#D9860C" opacity="0.996078" />
<rect x="18" y="6" width="1" height="2" fill="#FFC514" opacity="0.992157" />
<rect x="20" y="6" width="1" height="2" fill="#FFC917" />
<rect x="21" y="6" width="1" height="2" fill="#FFC516" opacity="0.992157" />
<rect x="22" y="6" width="1" height="2" fill="#FDC414" opacity="0.988235" />
<rect x="23" y="6" width="1" height="2" fill="#FCAB0C" />
<rect x="24" y="6" width="1" height="2" fill="#F67202" opacity="0.992157" />
<rect x="25" y="6" width="1" height="2" fill="#2674FF" />
<rect x="26" y="6" width="1" height="2" fill="#FFBD0A" opacity="0.992157" />
<rect x="27" y="6" width="1" height="2" fill="#F2A203" opacity="0.992157" />
<rect x="15" y="8" width="1" height="5" fill="#010101" />
<rect x="16" y="8" width="2" height="1" fill="#454B62" />
<rect x="18" y="8" width="1" height="1" fill="#F6990C" opacity="0.992157" />
<rect x="19" y="8" width="1" height="1" fill="#F8870A" opacity="0.996078" />
<rect x="20" y="8" width="1" height="1" fill="#0F3F49" />
<rect x="21" y="8" width="1" height="1" fill="#FEC214" opacity="0.996078" />
<rect x="22" y="8" width="1" height="1" fill="#FEC817" />
<rect x="23" y="8" width="1" height="1" fill="#0F3F49" />
<rect x="24" y="8" width="1" height="1" fill="#FFC815" />
<rect x="25" y="8" width="1" height="1" fill="#FFC114" />
<rect x="26" y="8" width="1" height="1" fill="#2674FF" />
<rect x="27" y="8" width="1" height="1" fill="#FBAF08" opacity="0.996078" />
<rect x="16" y="9" width="2" height="1" fill="#0F3F49" />
<rect x="18" y="9" width="1" height="1" fill="#FC9D06" opacity="0.996078" />
<rect x="19" y="9" width="1" height="1" fill="#FFBA13" />
<rect x="20" y="9" width="1" height="1" fill="#FFC012" opacity="0.988235" />
<rect x="21" y="9" width="3" height="1" fill="#2674FF" />
<rect x="24" y="9" width="1" height="1" fill="#FFC514" />
<rect x="25" y="9" width="1" height="1" fill="#FEC211" />
<rect x="26" y="9" width="1" height="1" fill="#FFC010" />
<rect x="27" y="9" width="1" height="3" fill="#2674FF" />
<rect x="16" y="10" width="2" height="2" fill="#454B62" />
<rect x="18" y="10" width="1" height="1" fill="#FDA506" opacity="0.992157" />
<rect x="19" y="10" width="1" height="1" fill="#FFC013" opacity="0.992157" />
<rect x="20" y="10" width="1" height="1" fill="#454B62" />
<rect x="21" y="10" width="1" height="1" fill="#2674FF" />
<rect x="22" y="10" width="1" height="1" fill="#0F3F49" />
<rect x="23" y="10" width="3" height="1" fill="#FEC315" />
<rect x="26" y="10" width="1" height="1" fill="#FFC00E" />
<rect x="28" y="10" width="1" height="1" fill="#FFBB07" opacity="0.992157" />
<rect x="29" y="10" width="1" height="2" fill="#010101" />
<rect x="30" y="10" width="1" height="1" fill="#404000" opacity="0.015686" />
<rect x="7" y="11" width="1" height="1" fill="#55552A" opacity="0.023529" />
<rect x="18" y="11" width="1" height="1" fill="#F99500" opacity="0.996078" />
<rect x="19" y="11" width="1" height="1" fill="#FFBA0A" opacity="0.992157" />
<rect x="20" y="11" width="1" height="1" fill="#FFBF0D" />
<rect x="21" y="11" width="1" height="1" fill="#FFC211" />
<rect x="22" y="11" width="3" height="1" fill="#030323" />
<rect x="25" y="11" width="1" height="1" fill="#030321" />
<rect x="26" y="11" width="1" height="1" fill="#FFBE10" opacity="0.996078" />
<rect x="28" y="11" width="1" height="1" fill="#FEB709" opacity="0.992157" />
<rect x="30" y="11" width="1" height="1" fill="#000000" opacity="0.003922" />
<rect x="7" y="12" width="3" height="1" fill="#010101" />
<rect x="10" y="12" width="1" height="1" fill="#020201" />
<rect x="16" y="12" width="2" height="2" fill="#010101" />
<rect x="18" y="12" width="1" height="1" fill="#F69A00" />
<rect x="19" y="12" width="1" height="1" fill="#F8AB06" />
<rect x="20" y="12" width="1" height="1" fill="#FEC30E" />
<rect x="21" y="12" width="1" height="1" fill="#FEBB0F" opacity="0.996078" />
<rect x="22" y="12" width="1" height="2" fill="#0F3F49" />
<rect x="23" y="12" width="2" height="1" fill="#BBD3FF" />
<rect x="25" y="12" width="1" height="2" fill="#0F3F49" />
<rect x="26" y="12" width="1" height="1" fill="#FFBD0B" />
<rect x="27" y="12" width="1" height="1" fill="#FEB90F" opacity="0.992157" />
<rect x="28" y="12" width="1" height="1" fill="#FDB709" />
<rect x="29" y="12" width="1" height="1" fill="#8C5C11" />
<rect x="30" y="12" width="1" height="3" fill="#010101" />
<rect x="5" y="13" width="1" height="1" fill="#404040" opacity="0.015686" />
<rect x="6" y="13" width="2" height="1" fill="#010101" />
<rect x="8" y="13" width="1" height="1" fill="#FCB702" />
<rect x="9" y="13" width="1" height="1" fill="#D28100" opacity="0.996078" />
<rect x="10" y="13" width="1" height="1" fill="#FBB803" />
<rect x="11" y="13" width="1" height="1" fill="#010101" />
<rect x="18" y="13" width="1" height="4" fill="#010101" />
<rect x="19" y="13" width="1" height="1" fill="#EF8C00" opacity="0.996078" />
<rect x="20" y="13" width="1" height="1" fill="#F49001" />
<rect x="21" y="13" width="1" height="1" fill="#FDC00B" opacity="0.996078" />
<rect x="23" y="13" width="1" height="1" fill="#BBD3FF" />
<rect x="24" y="13" width="1" height="1" fill="#2674FF" />
<rect x="26" y="13" width="1" height="1" fill="#FEB90A" opacity="0.996078" />
<rect x="27" y="13" width="1" height="1" fill="#FDB50D" />
<rect x="28" y="13" width="1" height="1" fill="#FCA901" opacity="0.996078" />
<rect x="29" y="13" width="1" height="1" fill="#FFAC01" opacity="0.996078" />
<rect x="5" y="14" width="1" height="1" fill="#010101" />
<rect x="6" y="14" width="1" height="1" fill="#F9F604" opacity="0.996078" />
<rect x="7" y="14" width="1" height="1" fill="#FDB803" />
<rect x="8" y="14" width="1" height="1" fill="#FBB603" />
<rect x="9" y="14" width="2" height="1" fill="#010101" />
<rect x="11" y="14" width="1" height="1" fill="#000101" />
<rect x="16" y="14" width="2" height="1" fill="#808000" opacity="0.007843" />
<rect x="19" y="14" width="1" height="1" fill="#E98100" />
<rect x="20" y="14" width="1" height="1" fill="#EA8000" opacity="0.996078" />
<rect x="21" y="14" width="1" height="1" fill="#FCB201" />
<rect x="22" y="14" width="1" height="1" fill="#F79C00" />
<rect x="23" y="14" width="2" height="1" fill="#0F3F49" />
<rect x="25" y="14" width="1" height="1" fill="#FEA300" />
<rect x="26" y="14" width="1" height="1" fill="#F89A00" opacity="0.996078" />
<rect x="27" y="14" width="1" height="1" fill="#FDB402" />
<rect x="28" y="14" width="1" height="1" fill="#FAA300" />
<rect x="29" y="14" width="1" height="1" fill="#F8A700" />
<rect x="4" y="15" width="1" height="2" fill="#010101" />
<rect x="5" y="15" width="1" height="1" fill="#766219" />
<rect x="6" y="15" width="1" height="1" fill="#E9AE05" opacity="0.996078" />
<rect x="7" y="15" width="1" height="1" fill="#FEBE01" opacity="0.992157" />
<rect x="8" y="15" width="1" height="1" fill="#020101" />
<rect x="19" y="15" width="1" height="1" fill="#EE8000" />
<rect x="20" y="15" width="1" height="1" fill="#2674FF" />
<rect x="21" y="15" width="1" height="1" fill="#C45D00" />
<rect x="22" y="15" width="1" height="1" fill="#C36100" opacity="0.988235" />
<rect x="23" y="15" width="4" height="1" fill="#010101" />
<rect x="27" y="15" width="1" height="1" fill="#B86202" />
<rect x="28" y="15" width="1" height="1" fill="#F7A500" opacity="0.992157" />
<rect x="29" y="15" width="1" height="2" fill="#010101" />
<rect x="30" y="15" width="1" height="1" fill="#000000" opacity="0.003922" />
<rect x="5" y="16" width="1" height="1" fill="#FDE601" opacity="0.996078" />
<rect x="6" y="16" width="1" height="1" fill="#FEC307" />
<rect x="7" y="16" width="1" height="1" fill="#FFB902" opacity="0.996078" />
<rect x="8" y="16" width="1" height="3" fill="#010101" />
<rect x="10" y="16" width="1" height="1" fill="#55552A" opacity="0.023529" />
<rect x="12" y="16" width="1" height="1" fill="#000000" opacity="0.992157" />
<rect x="13" y="16" width="5" height="1" fill="#010101" />
<rect x="19" y="16" width="1" height="1" fill="#F18C00" opacity="0.996078" />
<rect x="20" y="16" width="1" height="1" fill="#EB8700" />
<rect x="21" y="16" width="1" height="3" fill="#2674FF" />
<rect x="22" y="16" width="1" height="1" fill="#E09701" opacity="0.984314" />
<rect x="23" y="16" width="1" height="1" fill="#010101" />
<rect x="27" y="16" width="2" height="1" fill="#010101" />
<rect x="3" y="17" width="1" height="6" fill="#010101" />
<rect x="4" y="17" width="1" height="1" fill="#463411" />
<rect x="5" y="17" width="1" height="1" fill="#EFB600" />
<rect x="6" y="17" width="1" height="1" fill="#FBBA05" />
<rect x="7" y="17" width="1" height="1" fill="#FBBA03" />
<rect x="11" y="17" width="1" height="1" fill="#010101" opacity="0.996078" />
<rect x="12" y="17" width="2" height="1" fill="#A46208" />
<rect x="14" y="17" width="4" height="1" fill="#474B62" />
<rect x="18" y="17" width="1" height="1" fill="#F69E00" opacity="0.992157" />
<rect x="19" y="17" width="1" height="1" fill="#F59700" />
<rect x="20" y="17" width="1" height="1" fill="#FFCF06" />
<rect x="22" y="17" width="1" height="2" fill="#010101" />
<rect x="26" y="17" width="1" height="1" fill="#4D4D1A" opacity="0.039216" />
<rect x="4" y="18" width="1" height="1" fill="#FDD900" opacity="0.996078" />
<rect x="5" y="18" width="1" height="1" fill="#FFBD07" />
<rect x="6" y="18" width="1" height="1" fill="#A46208" />
<rect x="7" y="18" width="1" height="1" fill="#1A1D22" opacity="0.992157" />
<rect x="9" y="18" width="3" height="1" fill="#010101" />
<rect x="12" y="18" width="1" height="1" fill="#464C63" opacity="0.992157" />
<rect x="13" y="18" width="1" height="2" fill="#639BFF" />
<rect x="14" y="18" width="1" height="2" fill="#0F3F49" />
<rect x="15" y="18" width="2" height="1" fill="#0D1621" opacity="0.988235" />
<rect x="17" y="18" width="1" height="2" fill="#A46208" />
<rect x="18" y="18" width="1" height="1" fill="#FCB707" />
<rect x="19" y="18" width="1" height="1" fill="#FBA501" />
<rect x="20" y="18" width="1" height="1" fill="#FDC705" opacity="0.996078" />
<rect x="4" y="19" width="1" height="1" fill="#FACE07" opacity="0.992157" />
<rect x="5" y="19" width="1" height="1" fill="#FBAF05" opacity="0.992157" />
<rect x="6" y="19" width="1" height="1" fill="#705316" />
<rect x="7" y="19" width="1" height="2" fill="#0F3F49" />
<rect x="9" y="19" width="1" height="1" fill="#0E1722" />
<rect x="10" y="19" width="1" height="1" fill="#1C222F" opacity="0.992157" />
<rect x="11" y="19" width="1" height="1" fill="#639BFF" />
<rect x="12" y="19" width="1" height="1" fill="#0F3F49" />
<rect x="15" y="19" width="1" height="1" fill="#0E131E" />
<rect x="16" y="19" width="1" height="1" fill="#A46208" />
<rect x="18" y="19" width="1" height="1" fill="#F4A904" opacity="0.988235" />
<rect x="19" y="19" width="1" height="1" fill="#FEBE07" opacity="0.992157" />
<rect x="20" y="19" width="1" height="1" fill="#FDA503" />
<rect x="21" y="19" width="1" height="1" fill="#FED10A" />
<rect x="22" y="19" width="1" height="1" fill="#FFC10C" />
<rect x="23" y="19" width="2" height="1" fill="#010101" />
<rect x="4" y="20" width="1" height="1" fill="#F9C50A" opacity="0.992157" />
<rect x="5" y="20" width="1" height="1" fill="#AA4F06" opacity="0.996078" />
<rect x="6" y="20" width="1" height="1" fill="#7E4510" opacity="0.992157" />
<rect x="9" y="20" width="1" height="1" fill="#454B62" />
<rect x="10" y="20" width="2" height="1" fill="#0E1722" />
<rect x="12" y="20" width="1" height="1" fill="#639BFF" />
<rect x="13" y="20" width="1" height="1" fill="#1A212F" opacity="0.992157" />
<rect x="14" y="20" width="1" height="1" fill="#639BFF" />
<rect x="15" y="20" width="1" height="1" fill="#0F3F49" />
<rect x="16" y="20" width="2" height="1" fill="#F8BB05" opacity="0.996078" />
<rect x="18" y="20" width="1" height="1" fill="#F8B004" opacity="0.988235" />
<rect x="19" y="20" width="1" height="1" fill="#FDC70D" opacity="0.996078" />
<rect x="20" y="20" width="1" height="1" fill="#FDB906" />
<rect x="21" y="20" width="1" height="1" fill="#FCC509" />
<rect x="22" y="20" width="1" height="1" fill="#FFC70F" opacity="0.996078" />
<rect x="23" y="20" width="1" height="1" fill="#FEC103" opacity="0.996078" />
<rect x="24" y="20" width="2" height="1" fill="#010101" />
<rect x="4" y="21" width="1" height="1" fill="#F8C106" opacity="0.996078" />
<rect x="5" y="21" width="1" height="1" fill="#421A0C" />
<rect x="6" y="21" width="1" height="1" fill="#77390D" opacity="0.996078" />
<rect x="7" y="21" width="1" height="1" fill="#483B0E" />
<rect x="9" y="21" width="1" height="2" fill="#0F3F49" />
<rect x="10" y="21" width="2" height="1" fill="#639BFF" />
<rect x="12" y="21" width="1" height="1" fill="#A46208" />
<rect x="13" y="21" width="1" height="1" fill="#4A3D0E" />
<rect x="14" y="21" width="1" height="1" fill="#FFCF00" opacity="0.988235" />
<rect x="15" y="21" width="1" height="1" fill="#FDDA07" />
<rect x="16" y="21" width="2" height="1" fill="#FDBF07" opacity="0.988235" />
<rect x="18" y="21" width="1" height="1" fill="#FEBF0C" opacity="0.996078" />
<rect x="19" y="21" width="1" height="1" fill="#FEC20D" opacity="0.988235" />
<rect x="20" y="21" width="1" height="1" fill="#FEBE0B" />
<rect x="21" y="21" width="1" height="1" fill="#FEC50D" />
<rect x="22" y="21" width="1" height="1" fill="#FFC30C" opacity="0.996078" />
<rect x="23" y="21" width="1" height="1" fill="#2674FF" />
<rect x="24" y="21" width="1" height="1" fill="#000016" opacity="0.992157" />
<rect x="25" y="21" width="2" height="1" fill="#010101" />
<rect x="4" y="22" width="1" height="1" fill="#FCCF04" opacity="0.984314" />
<rect x="5" y="22" width="1" height="1" fill="#FCC206" />
<rect x="6" y="22" width="1" height="1" fill="#FFF700" />
<rect x="7" y="22" width="2" height="1" fill="#0E1722" />
<rect x="10" y="22" width="2" height="1" fill="#0F3F49" />
<rect x="12" y="22" width="1" height="1" fill="#639BFF" />
<rect x="13" y="22" width="1" height="1" fill="#FDB405" />
<rect x="14" y="22" width="1" height="1" fill="#FCB809" />
<rect x="15" y="22" width="1" height="1" fill="#FDBE08" />
<rect x="16" y="22" width="2" height="1" fill="#2674FF" />
<rect x="18" y="22" width="1" height="1" fill="#474B62" />
<rect x="19" y="22" width="1" height="1" fill="#FFC009" opacity="0.996078" />
<rect x="20" y="22" width="1" height="1" fill="#FFC107" />
<rect x="21" y="22" width="1" height="1" fill="#FDB504" opacity="0.996078" />
<rect x="22" y="22" width="1" height="1" fill="#2674FF" />
<rect x="23" y="22" width="1" height="1" fill="#FFC00B" opacity="0.992157" />
<rect x="24" y="22" width="1" height="1" fill="#F2A000" opacity="0.992157" />
<rect x="25" y="22" width="1" height="1" fill="#1F1514" opacity="0.992157" />
<rect x="26" y="22" width="1" height="10" fill="#010101" />
<rect x="3" y="23" width="1" height="2" fill="#000000" opacity="0.992157" />
<rect x="4" y="23" width="1" height="2" fill="#6B410B" opacity="0.988235" />
<rect x="5" y="23" width="1" height="2" fill="#FAAC02" />
<rect x="6" y="23" width="1" height="2" fill="#FFFC0A" opacity="0.996078" />
<rect x="7" y="23" width="1" height="2" fill="#0E1722" />
<rect x="8" y="23" width="2" height="2" fill="#639BFF" />
<rect x="10" y="23" width="2" height="2" fill="#5B6EE1" />
<rect x="12" y="23" width="1" height="2" fill="#38231C" />
<rect x="13" y="23" width="1" height="2" fill="#FEBC08" />
<rect x="14" y="23" width="1" height="2" fill="#FBBC08" />
<rect x="15" y="23" width="1" height="2" fill="#FFB909" />
<rect x="16" y="23" width="2" height="2" fill="#0F3F49" />
<rect x="18" y="23" width="1" height="2" fill="#FCA402" opacity="0.992157" />
<rect x="19" y="23" width="1" height="3" fill="#474B62" />
<rect x="20" y="23" width="1" height="2" fill="#FDB907" />
<rect x="21" y="23" width="1" height="2" fill="#FAA700" opacity="0.988235" />
<rect x="22" y="23" width="1" height="2" fill="#FEB004" opacity="0.988235" />
<rect x="23" y="23" width="1" height="3" fill="#2674FF" />
<rect x="24" y="23" width="1" height="2" fill="#FEAC00" opacity="0.992157" />
<rect x="25" y="23" width="1" height="2" fill="#090C17" opacity="0.992157" />
<rect x="4" y="25" width="1" height="2" fill="#010101" />
<rect x="5" y="25" width="1" height="1" fill="#FCC001" />
<rect x="6" y="25" width="1" height="1" fill="#FFAE01" />
<rect x="7" y="25" width="1" height="1" fill="#F9A800" />
<rect x="8" y="25" width="1" height="1" fill="#854F19" opacity="0.996078" />
<rect x="9" y="25" width="1" height="1" fill="#5B6EE1" />
<rect x="10" y="25" width="2" height="1" fill="#306082" />
<rect x="12" y="25" width="1" height="1" fill="#FFE501" />
<rect x="13" y="25" width="1" height="1" fill="#FEB506" />
<rect x="14" y="25" width="1" height="1" fill="#FFB506" />
<rect x="15" y="25" width="3" height="1" fill="#474B62" />
<rect x="18" y="25" width="1" height="1" fill="#5B6EE1" />
<rect x="20" y="25" width="1" height="1" fill="#474B62" />
<rect x="21" y="25" width="1" height="1" fill="#F69900" opacity="0.992157" />
<rect x="22" y="25" width="1" height="1" fill="#F89700" opacity="0.996078" />
<rect x="24" y="25" width="1" height="1" fill="#E67E00" />
<rect x="25" y="25" width="1" height="1" fill="#080815" opacity="0.996078" />
<rect x="5" y="26" width="1" height="1" fill="#FCDC00" />
<rect x="6" y="26" width="1" height="1" fill="#FB9C00" />
<rect x="7" y="26" width="1" height="1" fill="#FBA402" opacity="0.992157" />
<rect x="8" y="26" width="1" height="1" fill="#FCBD09" opacity="0.996078" />
<rect x="9" y="26" width="1" height="1" fill="#493C39" opacity="0.996078" />
<rect x="10" y="26" width="2" height="1" fill="#282434" opacity="0.996078" />
<rect x="12" y="26" width="1" height="1" fill="#F09A00" />
<rect x="13" y="26" width="1" height="1" fill="#FEAC00" />
<rect x="14" y="26" width="1" height="1" fill="#FDA602" />
<rect x="15" y="26" width="1" height="1" fill="#FFAF03" />
<rect x="16" y="26" width="2" height="1" fill="#F69A02" opacity="0.992157" />
<rect x="18" y="26" width="1" height="2" fill="#0F3F49" />
<rect x="19" y="26" width="1" height="1" fill="#F28900" opacity="0.996078" />
<rect x="20" y="26" width="1" height="1" fill="#ED8400" />
<rect x="21" y="26" width="1" height="1" fill="#F69000" opacity="0.992157" />
<rect x="22" y="26" width="1" height="1" fill="#EE8500" opacity="0.992157" />
<rect x="23" y="26" width="1" height="1" fill="#DD7700" />
<rect x="24" y="26" width="1" height="1" fill="#DB7200" opacity="0.988235" />
<rect x="25" y="26" width="1" height="1" fill="#0C0816" />
<rect x="4" y="27" width="1" height="1" fill="#808000" opacity="0.007843" />
<rect x="5" y="27" width="1" height="1" fill="#020200" />
<rect x="6" y="27" width="1" height="1" fill="#F49900" />
<rect x="7" y="27" width="1" height="1" fill="#FA9E00" opacity="0.996078" />
<rect x="8" y="27" width="1" height="1" fill="#F79900" opacity="0.996078" />
<rect x="9" y="27" width="1" height="1" fill="#CF6B03" opacity="0.996078" />
<rect x="10" y="27" width="2" height="1" fill="#F18802" opacity="0.996078" />
<rect x="12" y="27" width="1" height="1" fill="#F18F00" />
<rect x="13" y="27" width="1" height="1" fill="#FDA501" />
<rect x="14" y="27" width="1" height="1" fill="#FBA000" />
<rect x="15" y="27" width="1" height="1" fill="#FD9E00" opacity="0.996078" />
<rect x="16" y="27" width="2" height="1" fill="#F5AC00" opacity="0.992157" />
<rect x="19" y="27" width="1" height="1" fill="#DD7400" opacity="0.996078" />
<rect x="20" y="27" width="1" height="1" fill="#EC8500" />
<rect x="21" y="27" width="1" height="1" fill="#ED8401" />
<rect x="22" y="27" width="1" height="1" fill="#D67300" opacity="0.988235" />
<rect x="23" y="27" width="1" height="1" fill="#ED8400" />
<rect x="24" y="27" width="1" height="1" fill="#D16B00" opacity="0.988235" />
<rect x="25" y="27" width="1" height="1" fill="#1B1311" />
<rect x="5" y="28" width="1" height="1" fill="#010101" />
<rect x="6" y="28" width="1" height="1" fill="#B57403" opacity="0.988235" />
<rect x="7" y="28" width="1" height="1" fill="#E28000" opacity="0.988235" />
<rect x="8" y="28" width="1" height="1" fill="#EB8500" opacity="0.992157" />
<rect x="9" y="28" width="1" height="1" fill="#ED8100" opacity="0.996078" />
<rect x="10" y="28" width="2" height="1" fill="#E37801" />
<rect x="12" y="28" width="1" height="1" fill="#E27B00" />
<rect x="13" y="28" width="1" height="1" fill="#FAA202" />
<rect x="14" y="28" width="1" height="1" fill="#F39C00" />
<rect x="15" y="28" width="1" height="1" fill="#FEB406" />
<rect x="16" y="28" width="2" height="1" fill="#0F3F49" />
<rect x="18" y="28" width="1" height="1" fill="#5B6EE1" />
<rect x="19" y="28" width="1" height="1" fill="#D56D00" />
<rect x="20" y="28" width="1" height="1" fill="#E57E00" opacity="0.992157" />
<rect x="21" y="28" width="1" height="2" fill="#0F3F49" />
<rect x="22" y="28" width="1" height="1" fill="#ED8400" />
<rect x="23" y="28" width="1" height="1" fill="#D16D00" />
<rect x="24" y="28" width="1" height="1" fill="#C66300" />
<rect x="25" y="28" width="1" height="1" fill="#0F3F49" />
<rect x="6" y="29" width="2" height="1" fill="#010101" />
<rect x="8" y="29" width="1" height="1" fill="#EB8700" opacity="0.996078" />
<rect x="9" y="29" width="1" height="1" fill="#E57E02" opacity="0.992157" />
<rect x="10" y="29" width="1" height="1" fill="#EC8D00" />
<rect x="11" y="29" width="1" height="1" fill="#B66101" />
<rect x="12" y="29" width="1" height="1" fill="#DF8300" />
<rect x="13" y="29" width="1" height="1" fill="#43240A" />
<rect x="14" y="29" width="1" height="1" fill="#1B1718" />
<rect x="15" y="29" width="2" height="1" fill="#1B1A17" opacity="0.992157" />
<rect x="17" y="29" width="1" height="1" fill="#1B1215" />
<rect x="18" y="29" width="1" height="1" fill="#F08B00" />
<rect x="19" y="29" width="1" height="1" fill="#EC8800" opacity="0.996078" />
<rect x="20" y="29" width="1" height="1" fill="#0F3F49" />
<rect x="22" y="29" width="1" height="1" fill="#2C1E1B" />
<rect x="23" y="29" width="1" height="1" fill="#B45B00" />
<rect x="24" y="29" width="1" height="1" fill="#B35900" />
<rect x="25" y="29" width="1" height="1" fill="#D37103" />
<rect x="8" y="30" width="4" height="1" fill="#010101" />
<rect x="12" y="30" width="1" height="1" fill="#EF9F01" />
<rect x="13" y="30" width="1" height="1" fill="#EC9702" opacity="0.996078" />
<rect x="14" y="30" width="1" height="1" fill="#FBB906" />
<rect x="15" y="30" width="2" height="1" fill="#EFA100" opacity="0.992157" />
<rect x="17" y="30" width="1" height="1" fill="#180F15" opacity="0.996078" />
<rect x="18" y="30" width="1" height="1" fill="#E47C00" opacity="0.996078" />
<rect x="19" y="30" width="1" height="1" fill="#E27D00" />
<rect x="20" y="30" width="1" height="1" fill="#F69A00" opacity="0.996078" />
<rect x="21" y="30" width="1" height="1" fill="#FDC306" />
<rect x="22" y="30" width="1" height="1" fill="#1D1719" opacity="0.992157" />
<rect x="23" y="30" width="1" height="1" fill="#E58500" opacity="0.996078" />
<rect x="24" y="30" width="1" height="1" fill="#E78600" />
<rect x="25" y="30" width="1" height="1" fill="#EF8700" />
<rect x="11" y="31" width="15" height="1" fill="#010101" />
</svg>