<?xml version="1.0" encoding="UTF-8" ?>
<svg version="1.1" width="32" height="32" xmlns="http://www.w3.org/2000/svg" shape-rendering="crispEdges">
<rect x="7" y="0" width="1" height="1" fill="#000000" opacity="0.003922" />
<rect x="13" y="0" width="1" height="1" fill="#080E13" />
<rect x="14" y="0" width="2" height="1" fill="#080D15" opacity="0.996078" />
<rect x="20" y="0" width="1" height="1" fill="#030E16" />
<rect x="21" y="0" width="1" height="1" fill="#060C13" opacity="0.996078" />
<rect x="22" y="0" width="1" height="1" fill="#080D15" opacity="0.996078" />
<rect x="12" y="1" width="1" height="1" fill="#555500" opacity="0.011765" />
<rect x="13" y="1" width="1" height="1" fill="#091013" />
<rect x="14" y="1" width="1" height="1" fill="#792713" />
<rect x="15" y="1" width="1" height="1" fill="#090E16" />
<rect x="20" y="1" width="1" height="1" fill="#040B11" opacity="0.984314" />
<rect x="21" y="1" width="1" height="1" fill="#692313" />
<rect x="22" y="1" width="1" height="1" fill="#111115" />
<rect x="13" y="2" width="1" height="1" fill="#070E14" />
<rect x="14" y="2" width="1" height="1" fill="#752611" />
<rect x="15" y="2" width="1" height="1" fill="#711F10" opacity="0.984314" />
<rect x="16" y="2" width="1" height="1" fill="#090E14" />
<rect x="20" y="2" width="1" height="1" fill="#000A13" opacity="0.980392" />
<rect x="21" y="2" width="1" height="1" fill="#692010" opacity="0.996078" />
<rect x="22" y="2" width="1" height="1" fill="#72240F" />
<rect x="23" y="2" width="1" height="1" fill="#050912" opacity="0.996078" />
<rect x="12" y="3" width="1" height="1" fill="#800000" opacity="0.007843" />
<rect x="13" y="3" width="1" height="1" fill="#0B0F11" />
<rect x="14" y="3" width="1" height="1" fill="#631E10" />
<rect x="15" y="3" width="1" height="1" fill="#8F2F0D" opacity="0.996078" />
<rect x="16" y="3" width="1" height="1" fill="#99320F" />
<rect x="17" y="3" width="2" height="1" fill="#090E14" />
<rect x="19" y="3" width="1" height="1" fill="#070E14" />
<rect x="20" y="3" width="1" height="1" fill="#090D14" />
<rect x="21" y="3" width="1" height="1" fill="#601A11" />
<rect x="22" y="3" width="1" height="1" fill="#872C10" />
<rect x="23" y="3" width="1" height="1" fill="#070A0F" />
<rect x="13" y="4" width="1" height="1" fill="#080D15" opacity="0.996078" />
<rect x="14" y="4" width="1" height="1" fill="#090D14" />
<rect x="15" y="4" width="1" height="1" fill="#6B1E10" />
<rect x="16" y="4" width="1" height="1" fill="#9B320C" opacity="0.996078" />
<rect x="17" y="4" width="1" height="1" fill="#87260D" opacity="0.996078" />
<rect x="18" y="4" width="1" height="1" fill="#37120F" />
<rect x="19" y="4" width="1" height="1" fill="#210E10" opacity="0.996078" />
<rect x="20" y="4" width="1" height="1" fill="#5C180E" />
<rect x="21" y="4" width="1" height="1" fill="#5A1B10" opacity="0.996078" />
<rect x="22" y="4" width="1" height="1" fill="#56180F" />
<rect x="23" y="4" width="1" height="1" fill="#581B0F" opacity="0.988235" />
<rect x="24" y="4" width="1" height="1" fill="#020D19" opacity="0.972549" />
<rect x="14" y="5" width="1" height="1" fill="#090E14" />
<rect x="15" y="5" width="1" height="1" fill="#6E1D0D" />
<rect x="16" y="5" width="1" height="1" fill="#97300C" />
<rect x="17" y="5" width="1" height="1" fill="#922C0A" />
<rect x="18" y="5" width="1" height="1" fill="#5F170F" />
<rect x="19" y="5" width="1" height="1" fill="#35100D" />
<rect x="20" y="5" width="1" height="1" fill="#3A110F" />
<rect x="21" y="5" width="1" height="1" fill="#5E180D" opacity="0.996078" />
<rect x="22" y="5" width="1" height="1" fill="#55160E" />
<rect x="23" y="5" width="1" height="1" fill="#74220B" />
<rect x="24" y="5" width="1" height="1" fill="#3B1711" />
<rect x="25" y="5" width="1" height="1" fill="#5D2E2E" opacity="0.043137" />
<rect x="13" y="6" width="1" height="1" fill="#000000" opacity="0.003922" />
<rect x="14" y="6" width="1" height="1" fill="#080E14" />
<rect x="15" y="6" width="1" height="1" fill="#361511" opacity="0.992157" />
<rect x="16" y="6" width="1" height="1" fill="#601D0F" />
<rect x="17" y="6" width="1" height="1" fill="#892C0C" />
<rect x="18" y="6" width="1" height="1" fill="#95300B" opacity="0.992157" />
<rect x="19" y="6" width="1" height="1" fill="#641A0F" />
<rect x="20" y="6" width="1" height="1" fill="#450D0E" />
<rect x="21" y="6" width="1" height="1" fill="#942F0A" opacity="0.992157" />
<rect x="22" y="6" width="1" height="1" fill="#922F0B" />
<rect x="23" y="6" width="1" height="1" fill="#92300C" />
<rect x="24" y="6" width="1" height="1" fill="#6C2010" />
<rect x="25" y="6" width="1" height="1" fill="#0E0F12" />
<rect x="7" y="7" width="1" height="1" fill="#000000" opacity="0.003922" />
<rect x="15" y="7" width="1" height="1" fill="#070C14" />
<rect x="16" y="7" width="1" height="1" fill="#5B180D" />
<rect x="17" y="7" width="1" height="1" fill="#6F1D0D" />
<rect x="18" y="7" width="1" height="1" fill="#78220E" />
<rect x="19" y="7" width="1" height="1" fill="#7F270E" />
<rect x="20" y="7" width="1" height="1" fill="#7D230C" />
<rect x="21" y="7" width="1" height="1" fill="#942E0C" />
<rect x="22" y="7" width="1" height="1" fill="#962E0D" />
<rect x="23" y="7" width="1" height="1" fill="#99310B" />
<rect x="24" y="7" width="1" height="1" fill="#94310B" />
<rect x="25" y="7" width="1" height="1" fill="#16100D" />
<rect x="11" y="8" width="1" height="1" fill="#000000" opacity="0.003922" />
<rect x="12" y="8" width="1" height="1" fill="#333333" opacity="0.019608" />
<rect x="13" y="8" width="2" height="1" fill="#090E14" />
<rect x="15" y="8" width="1" height="1" fill="#080C14" />
<rect x="16" y="8" width="1" height="1" fill="#5B170F" />
<rect x="17" y="8" width="1" height="1" fill="#63180B" />
<rect x="18" y="8" width="1" height="1" fill="#7A230F" />
<rect x="19" y="8" width="1" height="1" fill="#93300C" />
<rect x="20" y="8" width="1" height="1" fill="#912D0A" />
<rect x="21" y="8" width="1" height="1" fill="#93300D" />
<rect x="22" y="8" width="1" height="1" fill="#98310C" />
<rect x="23" y="8" width="1" height="1" fill="#9A320A" opacity="0.996078" />
<rect x="24" y="8" width="1" height="1" fill="#A03209" />
<rect x="25" y="8" width="1" height="1" fill="#A13308" />
<rect x="26" y="8" width="1" height="1" fill="#091115" />
<rect x="13" y="9" width="1" height="2" fill="#090E14" />
<rect x="14" y="9" width="1" height="1" fill="#5B1A0D" />
<rect x="15" y="9" width="1" height="1" fill="#81230E" opacity="0.996078" />
<rect x="16" y="9" width="1" height="1" fill="#8B2A0C" />
<rect x="17" y="9" width="1" height="1" fill="#8A290C" opacity="0.996078" />
<rect x="18" y="9" width="1" height="1" fill="#7F270D" />
<rect x="19" y="9" width="1" height="1" fill="#942E0C" opacity="0.996078" />
<rect x="20" y="9" width="1" height="1" fill="#902C0C" />
<rect x="21" y="9" width="1" height="1" fill="#691C10" />
<rect x="22" y="9" width="1" height="1" fill="#5F180E" />
<rect x="23" y="9" width="1" height="1" fill="#7C2209" opacity="0.996078" />
<rect x="24" y="9" width="1" height="1" fill="#A83A0A" />
<rect x="25" y="9" width="1" height="1" fill="#8F2C09" />
<rect x="26" y="9" width="1" height="1" fill="#0B1013" opacity="0.996078" />
<rect x="7" y="10" width="1" height="1" fill="#090E16" />
<rect x="8" y="10" width="3" height="1" fill="#090E14" />
<rect x="12" y="10" width="1" height="1" fill="#333300" opacity="0.019608" />
<rect x="14" y="10" width="1" height="1" fill="#59180D" />
<rect x="15" y="10" width="1" height="1" fill="#761E0E" opacity="0.992157" />
<rect x="16" y="10" width="1" height="1" fill="#8B2A0A" opacity="0.996078" />
<rect x="17" y="10" width="1" height="1" fill="#84280B" />
<rect x="18" y="10" width="1" height="1" fill="#89280B" />
<rect x="19" y="10" width="1" height="1" fill="#902C09" />
<rect x="20" y="10" width="1" height="1" fill="#912D0A" />
<rect x="21" y="10" width="1" height="1" fill="#8B2A0C" />
<rect x="22" y="10" width="1" height="1" fill="#120A0F" />
<rect x="23" y="10" width="1" height="1" fill="#79230B" opacity="0.992157" />
<rect x="24" y="10" width="1" height="1" fill="#73210D" />
<rect x="25" y="10" width="1" height="1" fill="#7B220B" />
<rect x="26" y="10" width="1" height="1" fill="#0C1114" opacity="0.996078" />
<rect x="6" y="11" width="1" height="1" fill="#070E17" opacity="0.992157" />
<rect x="7" y="11" width="1" height="1" fill="#D05E03" opacity="0.996078" />
<rect x="8" y="11" width="1" height="1" fill="#D65A00" opacity="0.992157" />
<rect x="9" y="11" width="1" height="1" fill="#B84402" opacity="0.996078" />
<rect x="10" y="11" width="1" height="1" fill="#B23C06" />
<rect x="11" y="11" width="1" height="1" fill="#090E16" />
<rect x="13" y="11" width="1" height="1" fill="#555500" opacity="0.011765" />
<rect x="14" y="11" width="1" height="1" fill="#090E14" />
<rect x="15" y="11" width="1" height="1" fill="#5B170D" />
<rect x="16" y="11" width="1" height="1" fill="#8B2B0D" />
<rect x="17" y="11" width="1" height="1" fill="#8D2B0D" />
<rect x="18" y="11" width="1" height="1" fill="#8E2C0C" />
<rect x="19" y="11" width="1" height="1" fill="#8E2B0A" />
<rect x="20" y="11" width="1" height="1" fill="#902D09" opacity="0.996078" />
<rect x="21" y="11" width="1" height="1" fill="#8F2D0E" />
<rect x="22" y="11" width="1" height="1" fill="#320E0C" />
<rect x="23" y="11" width="1" height="1" fill="#8C2C09" opacity="0.992157" />
<rect x="24" y="11" width="1" height="1" fill="#9C3106" />
<rect x="25" y="11" width="1" height="1" fill="#9E3007" />
<rect x="26" y="11" width="1" height="1" fill="#AB3907" opacity="0.992157" />
<rect x="27" y="11" width="1" height="1" fill="#0B0F14" opacity="0.988235" />
<rect x="5" y="12" width="1" height="1" fill="#090C14" opacity="0.992157" />
<rect x="6" y="12" width="1" height="1" fill="#B23D02" opacity="0.988235" />
<rect x="7" y="12" width="1" height="1" fill="#C84F05" opacity="0.988235" />
<rect x="8" y="12" width="1" height="1" fill="#5C1306" opacity="0.992157" />
<rect x="9" y="12" width="1" height="1" fill="#A83407" opacity="0.988235" />
<rect x="10" y="12" width="1" height="1" fill="#B73C04" opacity="0.996078" />
<rect x="11" y="12" width="1" height="3" fill="#090E14" />
<rect x="14" y="12" width="1" height="1" fill="#000000" opacity="0.003922" />
<rect x="15" y="12" width="1" height="1" fill="#090D14" />
<rect x="16" y="12" width="1" height="1" fill="#57150C" />
<rect x="17" y="12" width="1" height="1" fill="#81260C" />
<rect x="18" y="12" width="1" height="1" fill="#8E2A0B" opacity="0.996078" />
<rect x="19" y="12" width="1" height="1" fill="#892A0C" opacity="0.992157" />
<rect x="20" y="12" width="1" height="1" fill="#8B2B09" />
<rect x="21" y="12" width="1" height="1" fill="#8F290B" />
<rect x="22" y="12" width="1" height="1" fill="#912C0B" />
<rect x="23" y="12" width="1" height="1" fill="#A73806" opacity="0.996078" />
<rect x="24" y="12" width="1" height="1" fill="#AC390A" />
<rect x="25" y="12" width="1" height="1" fill="#A83708" />
<rect x="26" y="12" width="1" height="1" fill="#A83809" opacity="0.996078" />
<rect x="27" y="12" width="1" height="1" fill="#9B300C" />
<rect x="28" y="12" width="1" height="1" fill="#071019" />
<rect x="4" y="13" width="1" height="1" fill="#020814" opacity="0.976471" />
<rect x="5" y="13" width="1" height="1" fill="#D15504" />
<rect x="6" y="13" width="1" height="1" fill="#C44501" opacity="0.996078" />
<rect x="7" y="13" width="1" height="1" fill="#5C130D" opacity="0.996078" />
<rect x="8" y="13" width="1" height="1" fill="#530F07" opacity="0.992157" />
<rect x="9" y="13" width="1" height="1" fill="#A02F07" opacity="0.984314" />
<rect x="10" y="13" width="1" height="1" fill="#BA4104" />
<rect x="15" y="13" width="1" height="1" fill="#070C14" />
<rect x="16" y="13" width="1" height="1" fill="#60170C" />
<rect x="17" y="13" width="1" height="1" fill="#701D0C" opacity="0.996078" />
<rect x="18" y="13" width="1" height="1" fill="#86270C" opacity="0.996078" />
<rect x="19" y="13" width="1" height="1" fill="#87280B" />
<rect x="20" y="13" width="1" height="1" fill="#8B2B0A" />
<rect x="21" y="13" width="1" height="1" fill="#912C0B" opacity="0.996078" />
<rect x="22" y="13" width="1" height="1" fill="#912A0A" />
<rect x="23" y="13" width="1" height="1" fill="#942E0A" />
<rect x="24" y="13" width="1" height="1" fill="#9A3007" />
<rect x="25" y="13" width="1" height="1" fill="#721A09" />
<rect x="26" y="13" width="1" height="1" fill="#932A09" opacity="0.996078" />
<rect x="27" y="13" width="1" height="1" fill="#872409" opacity="0.996078" />
<rect x="28" y="13" width="1" height="1" fill="#0B1317" opacity="0.996078" />
<rect x="3" y="14" width="1" height="2" fill="#800000" opacity="0.007843" />
<rect x="4" y="14" width="1" height="1" fill="#0B0C11" />
<rect x="5" y="14" width="1" height="1" fill="#AA3503" />
<rect x="6" y="14" width="1" height="1" fill="#912505" opacity="0.992157" />
<rect x="7" y="14" width="1" height="1" fill="#791C05" opacity="0.988235" />
<rect x="8" y="14" width="1" height="1" fill="#8E2405" />
<rect x="9" y="14" width="1" height="1" fill="#87220B" />
<rect x="10" y="14" width="1" height="1" fill="#AC3605" opacity="0.996078" />
<rect x="13" y="14" width="1" height="1" fill="#800000" opacity="0.007843" />
<rect x="14" y="14" width="1" height="1" fill="#070C14" />
<rect x="15" y="14" width="1" height="1" fill="#1D0B0F" />
<rect x="16" y="14" width="1" height="1" fill="#932B0B" />
<rect x="17" y="14" width="1" height="1" fill="#8E2A0C" />
<rect x="18" y="14" width="1" height="1" fill="#5F150D" />
<rect x="19" y="14" width="1" height="1" fill="#3C110D" />
<rect x="20" y="14" width="1" height="1" fill="#02040C" />
<rect x="21" y="14" width="1" height="1" fill="#8D2808" />
<rect x="22" y="14" width="1" height="1" fill="#82290A" />
<rect x="23" y="14" width="1" height="1" fill="#902B09" />
<rect x="24" y="14" width="1" height="1" fill="#962F09" />
<rect x="25" y="14" width="1" height="1" fill="#AC390B" opacity="0.996078" />
<rect x="26" y="14" width="1" height="1" fill="#942D0A" opacity="0.996078" />
<rect x="27" y="14" width="1" height="1" fill="#8A260D" />
<rect x="28" y="14" width="1" height="1" fill="#091114" opacity="0.976471" />
<rect x="4" y="15" width="1" height="1" fill="#0B0F12" />
<rect x="5" y="15" width="1" height="1" fill="#9A2F08" />
<rect x="6" y="15" width="1" height="1" fill="#7B1D08" />
<rect x="7" y="15" width="1" height="1" fill="#8C2206" opacity="0.996078" />
<rect x="8" y="15" width="1" height="1" fill="#962504" opacity="0.996078" />
<rect x="9" y="15" width="1" height="1" fill="#832109" opacity="0.992157" />
<rect x="10" y="15" width="1" height="1" fill="#D14904" />
<rect x="11" y="15" width="1" height="1" fill="#090D14" />
<rect x="12" y="15" width="1" height="1" fill="#555500" opacity="0.011765" />
<rect x="14" y="15" width="1" height="1" fill="#090E14" />
<rect x="15" y="15" width="1" height="1" fill="#0E0710" opacity="0.992157" />
<rect x="16" y="15" width="1" height="1" fill="#85240C" opacity="0.996078" />
<rect x="17" y="15" width="1" height="1" fill="#8C2B08" />
<rect x="18" y="15" width="1" height="1" fill="#6F1E0C" />
<rect x="19" y="15" width="1" height="1" fill="#611B0C" />
<rect x="20" y="15" width="1" height="1" fill="#0A0A0E" opacity="0.996078" />
<rect x="21" y="15" width="1" height="1" fill="#9C2C0C" opacity="0.996078" />
<rect x="22" y="15" width="1" height="1" fill="#AE3109" />
<rect x="23" y="15" width="1" height="1" fill="#BA3808" />
<rect x="24" y="15" width="1" height="1" fill="#B23507" opacity="0.996078" />
<rect x="25" y="15" width="1" height="1" fill="#BD3B05" />
<rect x="26" y="15" width="1" height="1" fill="#B73E0A" opacity="0.996078" />
<rect x="27" y="15" width="1" height="1" fill="#AF330B" />
<rect x="28" y="15" width="1" height="1" fill="#071117" />
<rect x="3" y="16" width="1" height="1" fill="#0B0E14" />
<rect x="4" y="16" width="1" height="1" fill="#8A2608" />
<rect x="5" y="16" width="1" height="1" fill="#992807" />
<rect x="6" y="16" width="1" height="1" fill="#7D1B05" />
<rect x="7" y="16" width="1" height="1" fill="#8A2107" />
<rect x="8" y="16" width="1" height="1" fill="#952505" opacity="0.996078" />
<rect x="9" y="16" width="1" height="1" fill="#7A1C09" opacity="0.996078" />
<rect x="10" y="16" width="1" height="1" fill="#9F2E06" opacity="0.996078" />
<rect x="11" y="16" width="1" height="1" fill="#AD3508" />
<rect x="12" y="16" width="1" height="1" fill="#070C14" />
<rect x="13" y="16" width="1" height="1" fill="#060D15" />
<rect x="14" y="16" width="1" height="1" fill="#070C14" />
<rect x="15" y="16" width="1" height="1" fill="#691C0D" opacity="0.996078" />
<rect x="16" y="16" width="1" height="1" fill="#982A06" />
<rect x="17" y="16" width="1" height="1" fill="#902909" opacity="0.996078" />
<rect x="18" y="16" width="1" height="1" fill="#942C07" />
<rect x="19" y="16" width="1" height="1" fill="#6B1A0B" />
<rect x="20" y="16" width="1" height="1" fill="#55120C" />
<rect x="21" y="16" width="1" height="1" fill="#000612" />
<rect x="22" y="16" width="1" height="1" fill="#070E12" />
<rect x="23" y="16" width="1" height="1" fill="#0D0F13" opacity="0.996078" />
<rect x="24" y="16" width="1" height="1" fill="#0C100F" />
<rect x="25" y="16" width="1" height="1" fill="#671C09" />
<rect x="26" y="16" width="1" height="1" fill="#5E1D0F" />
<rect x="27" y="16" width="1" height="1" fill="#0E161A" opacity="0.996078" />
<rect x="3" y="17" width="1" height="1" fill="#110E12" />
<rect x="4" y="17" width="1" height="1" fill="#8D2607" />
<rect x="5" y="17" width="1" height="1" fill="#781B07" />
<rect x="6" y="17" width="1" height="1" fill="#872007" />
<rect x="7" y="17" width="1" height="1" fill="#992A06" opacity="0.992157" />
<rect x="8" y="17" width="1" height="1" fill="#982705" />
<rect x="9" y="17" width="1" height="1" fill="#771A07" opacity="0.996078" />
<rect x="10" y="17" width="1" height="1" fill="#7A1A07" />
<rect x="11" y="17" width="1" height="1" fill="#942708" opacity="0.992157" />
<rect x="12" y="17" width="1" height="1" fill="#8A2207" />
<rect x="13" y="17" width="1" height="1" fill="#912909" opacity="0.996078" />
<rect x="14" y="17" width="1" height="1" fill="#902909" opacity="0.992157" />
<rect x="15" y="17" width="1" height="1" fill="#7D1F0B" opacity="0.988235" />
<rect x="16" y="17" width="1" height="1" fill="#AA3504" opacity="0.996078" />
<rect x="17" y="17" width="1" height="1" fill="#B03803" opacity="0.988235" />
<rect x="18" y="17" width="1" height="1" fill="#BC3F00" />
<rect x="19" y="17" width="1" height="1" fill="#982A03" />
<rect x="20" y="17" width="1" height="1" fill="#B13902" />
<rect x="21" y="17" width="1" height="1" fill="#912808" />
<rect x="22" y="17" width="1" height="1" fill="#110D12" opacity="0.992157" />
<rect x="23" y="17" width="1" height="1" fill="#000000" opacity="0.003922" />
<rect x="25" y="17" width="1" height="1" fill="#0A0D18" opacity="0.984314" />
<rect x="26" y="17" width="1" height="1" fill="#090D15" opacity="0.984314" />
<rect x="3" y="18" width="1" height="1" fill="#080D15" opacity="0.992157" />
<rect x="4" y="18" width="1" height="1" fill="#8F2708" />
<rect x="5" y="18" width="1" height="1" fill="#791807" />
<rect x="6" y="18" width="1" height="1" fill="#871F08" />
<rect x="7" y="18" width="1" height="1" fill="#9C2D07" opacity="0.996078" />
<rect x="8" y="18" width="1" height="1" fill="#9B2807" />
<rect x="9" y="18" width="1" height="1" fill="#7B1A07" opacity="0.996078" />
<rect x="10" y="18" width="1" height="1" fill="#7C1B08" opacity="0.996078" />
<rect x="11" y="18" width="1" height="1" fill="#801F0B" opacity="0.992157" />
<rect x="12" y="18" width="1" height="1" fill="#801E09" opacity="0.992157" />
<rect x="13" y="18" width="1" height="1" fill="#8C2809" />
<rect x="14" y="18" width="1" height="1" fill="#8D2609" />
<rect x="15" y="18" width="1" height="1" fill="#9B2B08" opacity="0.996078" />
<rect x="16" y="18" width="1" height="1" fill="#BA3F01" />
<rect x="17" y="18" width="1" height="1" fill="#B93E00" opacity="0.996078" />
<rect x="18" y="18" width="1" height="1" fill="#CD4E00" />
<rect x="19" y="18" width="1" height="1" fill="#CF5100" opacity="0.996078" />
<rect x="20" y="18" width="1" height="1" fill="#CB4E00" opacity="0.996078" />
<rect x="21" y="18" width="1" height="1" fill="#A83506" opacity="0.996078" />
<rect x="22" y="18" width="1" height="1" fill="#0D0C13" />
<rect x="23" y="18" width="1" height="1" fill="#800000" opacity="0.007843" />
<rect x="3" y="19" width="1" height="1" fill="#060D12" />
<rect x="4" y="19" width="1" height="1" fill="#922707" opacity="0.996078" />
<rect x="5" y="19" width="1" height="1" fill="#912508" />
<rect x="6" y="19" width="1" height="1" fill="#8F2506" opacity="0.992157" />
<rect x="7" y="19" width="1" height="1" fill="#93280B" />
<rect x="8" y="19" width="1" height="1" fill="#8A2108" opacity="0.996078" />
<rect x="9" y="19" width="1" height="1" fill="#791C09" opacity="0.996078" />
<rect x="10" y="19" width="1" height="1" fill="#8D2206" opacity="0.996078" />
<rect x="11" y="19" width="1" height="1" fill="#8A2209" />
<rect x="12" y="19" width="1" height="1" fill="#681608" opacity="0.996078" />
<rect x="13" y="19" width="1" height="1" fill="#53140D" opacity="0.996078" />
<rect x="14" y="19" width="1" height="1" fill="#932A09" />
<rect x="15" y="19" width="1" height="1" fill="#A33106" opacity="0.996078" />
<rect x="16" y="19" width="1" height="1" fill="#B73C02" />
<rect x="17" y="19" width="1" height="1" fill="#D55800" />
<rect x="18" y="19" width="1" height="1" fill="#D65900" opacity="0.996078" />
<rect x="19" y="19" width="1" height="1" fill="#D35600" opacity="0.988235" />
<rect x="20" y="19" width="1" height="1" fill="#D75900" />
<rect x="21" y="19" width="1" height="1" fill="#CD5400" />
<rect x="22" y="19" width="1" height="1" fill="#A73204" />
<rect x="23" y="19" width="1" height="1" fill="#0D0A0E" opacity="0.996078" />
<rect x="3" y="20" width="1" height="1" fill="#080F12" opacity="0.988235" />
<rect x="4" y="20" width="1" height="1" fill="#8C2609" />
<rect x="5" y="20" width="1" height="1" fill="#7D1E0B" opacity="0.996078" />
<rect x="6" y="20" width="1" height="1" fill="#0C0E11" />
<rect x="7" y="20" width="1" height="1" fill="#0B0F13" />
<rect x="8" y="20" width="1" height="1" fill="#942A08" opacity="0.996078" />
<rect x="9" y="20" width="1" height="1" fill="#791B09" />
<rect x="10" y="20" width="1" height="1" fill="#8E2707" opacity="0.996078" />
<rect x="11" y="20" width="1" height="1" fill="#5B130A" />
<rect x="12" y="20" width="1" height="1" fill="#4D120B" opacity="0.992157" />
<rect x="13" y="20" width="1" height="1" fill="#902A0B" />
<rect x="14" y="20" width="1" height="1" fill="#8C2808" opacity="0.992157" />
<rect x="15" y="20" width="1" height="1" fill="#A63407" opacity="0.996078" />
<rect x="16" y="20" width="1" height="1" fill="#C24400" />
<rect x="17" y="20" width="1" height="1" fill="#D05200" />
<rect x="18" y="20" width="1" height="1" fill="#D65600" opacity="0.996078" />
<rect x="19" y="20" width="1" height="1" fill="#D45800" />
<rect x="20" y="20" width="1" height="1" fill="#D25300" />
<rect x="21" y="20" width="1" height="1" fill="#D55D00" />
<rect x="22" y="20" width="1" height="1" fill="#BE4200" opacity="0.996078" />
<rect x="23" y="20" width="1" height="1" fill="#0D0A0F" opacity="0.992157" />
<rect x="3" y="21" width="1" height="1" fill="#0C0F13" />
<rect x="4" y="21" width="1" height="1" fill="#972908" />
<rect x="5" y="21" width="1" height="1" fill="#0D0E11" />
<rect x="8" y="21" width="1" height="1" fill="#090C10" />
<rect x="9" y="21" width="1" height="1" fill="#781D08" opacity="0.992157" />
<rect x="10" y="21" width="1" height="1" fill="#68180B" />
<rect x="11" y="21" width="1" height="1" fill="#641B0C" />
<rect x="12" y="21" width="1" height="1" fill="#8C2409" />
<rect x="13" y="21" width="1" height="1" fill="#972E09" />
<rect x="14" y="21" width="1" height="1" fill="#91290B" />
<rect x="15" y="21" width="1" height="1" fill="#A13307" />
<rect x="16" y="21" width="1" height="1" fill="#C24700" opacity="0.996078" />
<rect x="17" y="21" width="1" height="1" fill="#CB4C00" />
<rect x="18" y="21" width="1" height="1" fill="#CC4D00" />
<rect x="19" y="21" width="1" height="1" fill="#D75400" />
<rect x="20" y="21" width="1" height="1" fill="#C34A00" />
<rect x="21" y="21" width="1" height="1" fill="#D65900" opacity="0.992157" />
<rect x="22" y="21" width="1" height="1" fill="#CC5200" />
<rect x="23" y="21" width="1" height="1" fill="#A73000" />
<rect x="24" y="21" width="1" height="1" fill="#0D1112" />
<rect x="4" y="22" width="1" height="1" fill="#110D10" />
<rect x="8" y="22" width="1" height="1" fill="#0C0F10" opacity="0.992157" />
<rect x="9" y="22" width="1" height="1" fill="#26110F" opacity="0.988235" />
<rect x="10" y="22" width="1" height="1" fill="#6E1A09" />
<rect x="11" y="22" width="1" height="1" fill="#771F0B" opacity="0.996078" />
<rect x="12" y="22" width="1" height="1" fill="#7A1F09" opacity="0.992157" />
<rect x="13" y="22" width="1" height="1" fill="#782009" opacity="0.996078" />
<rect x="14" y="22" width="1" height="1" fill="#71200D" />
<rect x="15" y="22" width="1" height="1" fill="#741F0B" opacity="0.992157" />
<rect x="16" y="22" width="1" height="1" fill="#AF3803" />
<rect x="17" y="22" width="1" height="1" fill="#BD4200" opacity="0.988235" />
<rect x="18" y="22" width="1" height="1" fill="#C04102" opacity="0.996078" />
<rect x="19" y="22" width="1" height="1" fill="#8E2807" />
<rect x="20" y="22" width="1" height="1" fill="#AA3500" />
<rect x="21" y="22" width="1" height="1" fill="#DA6200" />
<rect x="22" y="22" width="1" height="1" fill="#DA5E00" />
<rect x="23" y="22" width="1" height="1" fill="#C84F00" />
<rect x="24" y="22" width="1" height="1" fill="#1A1414" />
<rect x="7" y="23" width="1" height="1" fill="#000000" opacity="0.003922" />
<rect x="9" y="23" width="1" height="1" fill="#0B0C10" />
<rect x="10" y="23" width="1" height="1" fill="#8B2207" opacity="0.996078" />
<rect x="11" y="23" width="1" height="1" fill="#892508" />
<rect x="12" y="23" width="1" height="1" fill="#AA3405" opacity="0.992157" />
<rect x="13" y="23" width="1" height="1" fill="#A33402" />
<rect x="14" y="23" width="1" height="1" fill="#B43C03" />
<rect x="15" y="23" width="1" height="1" fill="#802409" opacity="0.996078" />
<rect x="16" y="23" width="1" height="1" fill="#791E08" />
<rect x="17" y="23" width="1" height="1" fill="#AE3600" opacity="0.992157" />
<rect x="18" y="23" width="1" height="1" fill="#BD3F00" />
<rect x="19" y="23" width="1" height="1" fill="#511109" opacity="0.996078" />
<rect x="20" y="23" width="1" height="1" fill="#591107" opacity="0.992157" />
<rect x="21" y="23" width="1" height="1" fill="#C84A00" opacity="0.996078" />
<rect x="22" y="23" width="1" height="1" fill="#DA5D00" />
<rect x="23" y="23" width="1" height="1" fill="#A73001" />
<rect x="24" y="23" width="1" height="1" fill="#0D1112" />
<rect x="8" y="24" width="1" height="1" fill="#0F1012" opacity="0.992157" />
<rect x="9" y="24" width="1" height="1" fill="#811F09" opacity="0.992157" />
<rect x="10" y="24" width="1" height="1" fill="#AD3302" opacity="0.996078" />
<rect x="11" y="24" width="1" height="1" fill="#942706" />
<rect x="12" y="24" width="1" height="1" fill="#B83D02" opacity="0.996078" />
<rect x="13" y="24" width="1" height="1" fill="#B23703" />
<rect x="14" y="24" width="1" height="1" fill="#C04300" opacity="0.996078" />
<rect x="15" y="24" width="1" height="1" fill="#942A08" />
<rect x="16" y="24" width="1" height="1" fill="#631706" />
<rect x="17" y="24" width="1" height="1" fill="#AB3100" opacity="0.992157" />
<rect x="18" y="24" width="1" height="1" fill="#BF4000" />
<rect x="19" y="24" width="1" height="1" fill="#450D0A" />
<rect x="20" y="24" width="1" height="1" fill="#350805" />
<rect x="21" y="24" width="1" height="1" fill="#B63B01" opacity="0.992157" />
<rect x="22" y="24" width="1" height="1" fill="#C34300" />
<rect x="23" y="24" width="1" height="1" fill="#9C2C01" opacity="0.988235" />
<rect x="24" y="24" width="1" height="1" fill="#111212" />
<rect x="25" y="24" width="1" height="1" fill="#000000" opacity="0.003922" />
<rect x="8" y="25" width="1" height="1" fill="#180F12" opacity="0.992157" />
<rect x="9" y="25" width="1" height="1" fill="#7F1E06" />
<rect x="10" y="25" width="1" height="1" fill="#AA3103" opacity="0.996078" />
<rect x="11" y="25" width="1" height="1" fill="#AA3204" opacity="0.996078" />
<rect x="12" y="25" width="1" height="1" fill="#BC3F02" opacity="0.992157" />
<rect x="13" y="25" width="1" height="1" fill="#D85D00" />
<rect x="14" y="25" width="1" height="1" fill="#C44600" />
<rect x="15" y="25" width="1" height="1" fill="#9F2B05" />
<rect x="16" y="25" width="1" height="1" fill="#65170A" />
<rect x="17" y="25" width="1" height="1" fill="#AB3601" opacity="0.996078" />
<rect x="18" y="25" width="1" height="1" fill="#BD3E00" />
<rect x="19" y="25" width="1" height="1" fill="#44100C" />
<rect x="20" y="25" width="1" height="1" fill="#31080B" />
<rect x="21" y="25" width="1" height="1" fill="#AA3404" />
<rect x="22" y="25" width="1" height="1" fill="#C74600" />
<rect x="23" y="25" width="1" height="1" fill="#711806" />
<rect x="24" y="25" width="1" height="1" fill="#0F1111" />
<rect x="7" y="26" width="1" height="1" fill="#171014" opacity="0.984314" />
<rect x="8" y="26" width="1" height="1" fill="#46150C" opacity="0.996078" />
<rect x="9" y="26" width="1" height="1" fill="#871E05" opacity="0.992157" />
<rect x="10" y="26" width="1" height="1" fill="#B23302" />
<rect x="11" y="26" width="1" height="1" fill="#B03503" opacity="0.996078" />
<rect x="12" y="26" width="1" height="1" fill="#B33602" />
<rect x="13" y="26" width="1" height="1" fill="#BA3A02" opacity="0.996078" />
<rect x="14" y="26" width="1" height="1" fill="#B83A01" />
<rect x="15" y="26" width="1" height="1" fill="#9D2C05" opacity="0.992157" />
<rect x="16" y="26" width="1" height="1" fill="#55160A" />
<rect x="17" y="26" width="1" height="1" fill="#A63305" opacity="0.992157" />
<rect x="18" y="26" width="1" height="1" fill="#9D2A05" />
<rect x="19" y="26" width="1" height="1" fill="#3A0E0A" />
<rect x="20" y="26" width="1" height="1" fill="#3A0F0D" />
<rect x="21" y="26" width="1" height="1" fill="#942906" />
<rect x="22" y="26" width="1" height="1" fill="#992704" />
<rect x="23" y="26" width="1" height="1" fill="#5E160B" opacity="0.996078" />
<rect x="24" y="26" width="1" height="1" fill="#090E11" />
<rect x="5" y="27" width="1" height="1" fill="#555500" opacity="0.011765" />
<rect x="7" y="27" width="1" height="1" fill="#191312" />
<rect x="8" y="27" width="1" height="1" fill="#7C1E05" opacity="0.996078" />
<rect x="9" y="27" width="1" height="1" fill="#801C05" opacity="0.996078" />
<rect x="10" y="27" width="1" height="1" fill="#A02904" />
<rect x="11" y="27" width="2" height="1" fill="#AA2F03" />
<rect x="13" y="27" width="1" height="1" fill="#B03304" />
<rect x="14" y="27" width="1" height="1" fill="#982705" opacity="0.992157" />
<rect x="15" y="27" width="1" height="1" fill="#87230A" />
<rect x="16" y="27" width="1" height="1" fill="#45120D" />
<rect x="17" y="27" width="1" height="1" fill="#AB3104" />
<rect x="18" y="27" width="1" height="1" fill="#9E2C08" opacity="0.996078" />
<rect x="19" y="27" width="1" height="1" fill="#2D0D0F" />
<rect x="20" y="27" width="1" height="1" fill="#3B0E0D" />
<rect x="21" y="27" width="1" height="1" fill="#7A1906" opacity="0.996078" />
<rect x="22" y="27" width="1" height="1" fill="#64150A" />
<rect x="23" y="27" width="1" height="1" fill="#53150B" opacity="0.992157" />
<rect x="24" y="27" width="1" height="1" fill="#0D0F11" opacity="0.996078" />
<rect x="4" y="28" width="1" height="1" fill="#552A2A" opacity="0.023529" />
<rect x="5" y="28" width="1" height="1" fill="#0F0F14" />
<rect x="6" y="28" width="1" height="1" fill="#090E13" />
<rect x="7" y="28" width="1" height="1" fill="#80200A" opacity="0.988235" />
<rect x="8" y="28" width="1" height="1" fill="#841A06" />
<rect x="9" y="28" width="1" height="1" fill="#851C07" opacity="0.996078" />
<rect x="10" y="28" width="1" height="1" fill="#871E03" opacity="0.996078" />
<rect x="11" y="28" width="1" height="1" fill="#9A2806" opacity="0.996078" />
<rect x="12" y="28" width="1" height="1" fill="#AB3103" />
<rect x="13" y="28" width="1" height="1" fill="#731808" opacity="0.996078" />
<rect x="14" y="28" width="1" height="1" fill="#912106" />
<rect x="15" y="28" width="1" height="1" fill="#7C1E09" opacity="0.996078" />
<rect x="16" y="28" width="1" height="1" fill="#46120E" />
<rect x="17" y="28" width="1" height="1" fill="#801E09" opacity="0.996078" />
<rect x="18" y="28" width="1" height="1" fill="#A42A02" opacity="0.996078" />
<rect x="19" y="28" width="1" height="1" fill="#5A110B" opacity="0.988235" />
<rect x="20" y="28" width="1" height="1" fill="#4B110A" />
<rect x="21" y="28" width="1" height="1" fill="#621609" />
<rect x="22" y="28" width="1" height="1" fill="#861E07" />
<rect x="23" y="28" width="1" height="1" fill="#661809" />
<rect x="24" y="28" width="1" height="1" fill="#151012" />
<rect x="25" y="28" width="1" height="1" fill="#402020" opacity="0.031373" />
<rect x="4" y="29" width="1" height="1" fill="#0D0E0E" />
<rect x="5" y="29" width="1" height="1" fill="#8A230A" />
<rect x="6" y="29" width="1" height="1" fill="#8E2003" />
<rect x="7" y="29" width="1" height="1" fill="#972607" opacity="0.996078" />
<rect x="8" y="29" width="1" height="1" fill="#972505" opacity="0.992157" />
<rect x="9" y="29" width="1" height="1" fill="#6C1607" opacity="0.988235" />
<rect x="10" y="29" width="1" height="1" fill="#741807" />
<rect x="11" y="29" width="1" height="1" fill="#861D07" />
<rect x="12" y="29" width="1" height="1" fill="#761A0A" opacity="0.996078" />
<rect x="13" y="29" width="1" height="1" fill="#7B1C09" opacity="0.992157" />
<rect x="14" y="29" width="1" height="1" fill="#5F170C" opacity="0.996078" />
<rect x="15" y="29" width="1" height="1" fill="#47130C" opacity="0.996078" />
<rect x="16" y="29" width="1" height="1" fill="#4B110C" />
<rect x="17" y="29" width="1" height="1" fill="#801D08" opacity="0.992157" />
<rect x="18" y="29" width="1" height="1" fill="#791D09" opacity="0.996078" />
<rect x="19" y="29" width="1" height="1" fill="#9D2D05" opacity="0.996078" />
<rect x="20" y="29" width="1" height="1" fill="#CE3802" />
<rect x="21" y="29" width="1" height="1" fill="#3A100D" opacity="0.996078" />
<rect x="22" y="29" width="1" height="1" fill="#5B160B" />
<rect x="23" y="29" width="1" height="1" fill="#691B0B" />
<rect x="24" y="29" width="1" height="1" fill="#5D1F0F" />
<rect x="25" y="29" width="1" height="1" fill="#091014" />
<rect x="26" y="29" width="1" height="1" fill="#800000" opacity="0.007843" />
<rect x="4" y="30" width="1" height="1" fill="#0E0D10" />
<rect x="5" y="30" width="1" height="1" fill="#8B2508" />
<rect x="6" y="30" width="1" height="1" fill="#932606" />
<rect x="7" y="30" width="1" height="1" fill="#922405" opacity="0.992157" />
<rect x="8" y="30" width="1" height="1" fill="#9D2704" />
<rect x="9" y="30" width="1" height="1" fill="#7F1905" opacity="0.992157" />
<rect x="10" y="30" width="1" height="1" fill="#992303" opacity="0.996078" />
<rect x="11" y="30" width="1" height="1" fill="#A72805" opacity="0.996078" />
<rect x="12" y="30" width="1" height="1" fill="#671208" opacity="0.996078" />
<rect x="13" y="30" width="1" height="1" fill="#AA2F05" />
<rect x="14" y="30" width="1" height="1" fill="#A93205" />
<rect x="15" y="30" width="1" height="1" fill="#6D1706" />
<rect x="16" y="30" width="1" height="1" fill="#801C05" />
<rect x="17" y="30" width="1" height="1" fill="#791705" opacity="0.996078" />
<rect x="18" y="30" width="1" height="1" fill="#A42903" />
<rect x="19" y="30" width="1" height="1" fill="#B43303" />
<rect x="20" y="30" width="1" height="1" fill="#6C1306" />
<rect x="21" y="30" width="1" height="1" fill="#290E0B" />
<rect x="22" y="30" width="1" height="1" fill="#9F2706" />
<rect x="23" y="30" width="1" height="1" fill="#3D140A" opacity="0.996078" />
<rect x="24" y="30" width="1" height="1" fill="#9E2904" />
<rect x="25" y="30" width="1" height="1" fill="#942607" />
<rect x="26" y="30" width="1" height="1" fill="#090E11" />
<rect x="4" y="31" width="1" height="1" fill="#090E14" />
<rect x="5" y="31" width="1" height="1" fill="#0B1013" />
<rect x="6" y="31" width="1" height="1" fill="#0A0F15" />
<rect x="7" y="31" width="1" height="1" fill="#0B1214" />
<rect x="8" y="31" width="1" height="1" fill="#0B1011" />
<rect x="9" y="31" width="1" height="1" fill="#0B1113" opacity="0.996078" />
<rect x="10" y="31" width="1" height="1" fill="#080E12" />
<rect x="11" y="31" width="1" height="1" fill="#0A0F13" />
<rect x="12" y="31" width="1" height="1" fill="#081013" />
<rect x="13" y="31" width="1" height="1" fill="#0A1013" />
<rect x="14" y="31" width="1" height="1" fill="#090E12" />
<rect x="15" y="31" width="1" height="1" fill="#091012" opacity="0.996078" />
<rect x="16" y="31" width="1" height="1" fill="#090F12" />
<rect x="17" y="31" width="1" height="1" fill="#0A0E12" />
<rect x="18" y="31" width="1" height="1" fill="#0C1011" />
<rect x="19" y="31" width="1" height="1" fill="#0B1012" />
<rect x="20" y="31" width="1" height="1" fill="#0A0E11" />
<rect x="21" y="31" width="1" height="1" fill="#0A0F13" opacity="0.996078" />
<rect x="22" y="31" width="1" height="1" fill="#0A1012" />
<rect x="23" y="31" width="1" height="1" fill="#090E13" />
<rect x="24" y="31" width="1" height="1" fill="#091212" />
<rect x="25" y="31" width="1" height="1" fill="#090E12" />
<rect x="26" y="31" width="1" height="1" fill="#091012" />
</svg>