<?xml version="1.0" encoding="UTF-8" ?>
<svg version="1.1" width="95" height="22" viewBox="17 40 95 22" xmlns="http://www.w3.org/2000/svg" shape-rendering="crispEdges">
<rect x="23" y="40" width="83" height="1" fill="#FFEC00" />
<rect x="22" y="41" width="1" height="1" fill="#FFEC00" />
<rect x="23" y="41" width="83" height="1" fill="#FFBF00" />
<rect x="106" y="41" width="1" height="1" fill="#FFEC00" />
<rect x="21" y="42" width="1" height="2" fill="#FFEC00" />
<rect x="22" y="42" width="1" height="2" fill="#FFBF00" />
<rect x="23" y="42" width="83" height="18" fill="#FBA532" opacity="0.521569" />
<rect x="106" y="42" width="1" height="2" fill="#FFBF00" />
<rect x="107" y="42" width="1" height="2" fill="#FFEC00" />
<rect x="20" y="44" width="1" height="2" fill="#FFEC00" />
<rect x="21" y="44" width="1" height="2" fill="#FFBF00" />
<rect x="22" y="44" width="1" height="14" fill="#FBA532" opacity="0.521569" />
<rect x="106" y="44" width="1" height="14" fill="#FBA532" opacity="0.521569" />
<rect x="107" y="44" width="1" height="2" fill="#FFBF00" />
<rect x="108" y="44" width="1" height="2" fill="#FFEC00" />
<rect x="19" y="46" width="1" height="2" fill="#FFEC00" />
<rect x="20" y="46" width="1" height="2" fill="#FFBF00" />
<rect x="21" y="46" width="1" height="10" fill="#FBA532" opacity="0.521569" />
<rect x="107" y="46" width="1" height="10" fill="#FBA532" opacity="0.521569" />
<rect x="108" y="46" width="1" height="2" fill="#FFBF00" />
<rect x="109" y="46" width="1" height="2" fill="#FFEC00" />
<rect x="18" y="48" width="1" height="2" fill="#FFEC00" />
<rect x="19" y="48" width="1" height="2" fill="#FFBF00" />
<rect x="20" y="48" width="1" height="6" fill="#FBA532" opacity="0.521569" />
<rect x="108" y="48" width="1" height="6" fill="#FBA532" opacity="0.521569" />
<rect x="109" y="48" width="1" height="2" fill="#FFBF00" />
<rect x="110" y="48" width="1" height="2" fill="#FFEC00" />
<rect x="17" y="50" width="1" height="2" fill="#FFEC00" />
<rect x="18" y="50" width="1" height="2" fill="#FFBF00" />
<rect x="19" y="50" width="1" height="2" fill="#FBA532" opacity="0.521569" />
<rect x="109" y="50" width="1" height="2" fill="#FBA532" opacity="0.521569" />
<rect x="110" y="50" width="1" height="2" fill="#FFBF00" />
<rect x="111" y="50" width="1" height="2" fill="#FFEC00" />
<rect x="18" y="52" width="1" height="2" fill="#FFEC00" />
<rect x="19" y="52" width="1" height="2" fill="#FFBF00" />
<rect x="109" y="52" width="1" height="2" fill="#FFBF00" />
<rect x="110" y="52" width="1" height="2" fill="#FFEC00" />
<rect x="19" y="54" width="1" height="2" fill="#FFEC00" />
<rect x="20" y="54" width="1" height="2" fill="#FFBF00" />
<rect x="108" y="54" width="1" height="2" fill="#FFBF00" />
<rect x="109" y="54" width="1" height="2" fill="#FFEC00" />
<rect x="20" y="56" width="1" height="2" fill="#FFEC00" />
<rect x="21" y="56" width="1" height="2" fill="#FFBF00" />
<rect x="107" y="56" width="1" height="2" fill="#FFBF00" />
<rect x="108" y="56" width="1" height="2" fill="#FFEC00" />
<rect x="21" y="58" width="1" height="2" fill="#FFEC00" />
<rect x="22" y="58" width="1" height="2" fill="#FFBF00" />
<rect x="106" y="58" width="1" height="2" fill="#FFBF00" />
<rect x="107" y="58" width="1" height="2" fill="#FFEC00" />
<rect x="22" y="60" width="1" height="1" fill="#FFEC00" />
<rect x="23" y="60" width="83" height="1" fill="#FFBF00" />
<rect x="106" y="60" width="1" height="1" fill="#FFEC00" />
<rect x="23" y="61" width="83" height="1" fill="#FFEC00" />
</svg>